# xmcd
#
# Track frame offsets: 
#        150
#        14412
#        34330
#        53117
#        70460
#        87985
#        108095
#        125375
#        143075
#        161335
#        181775
#        196372
#        216605
#        235877
#
# Disc length: 3395 seconds
#
# Revision: 4
# Processed by: cddbd v1.4PL0 Copyright (c) Steve Scherf et al.
# Submitted via: ExactAudioCopy v0.90a11
#
DISCID=c40d410e
DTITLE=Trisha Yearwood - Real Live Woman
DYEAR=1900
DGENRE=
TTITLE0=Where Are You Now
TTITLE1=One Love
TTITLE2=Sad Eyes
TTITLE3=Some Days
TTITLE4=I Did
TTITLE5=Try Me Again
TTITLE6=Too Bad You're No Good
TTITLE7=Real Love Woman
TTITLE8=I'm Still Alive
TTITLE9=Wild For You Baby
TTITLE10=Come Back When It Ain't Rainin'
TTITLE11=When A Love Song Sings The Blues
TTITLE12=You're Where I Belong (Bonus Track)
TTITLE13=Something So Right (Bonus Track)
EXTD=
EXTT0=
EXTT1=
EXTT2=
EXTT3=
EXTT4=
EXTT5=
EXTT6=
EXTT7=
EXTT8=
EXTT9=
EXTT10=
EXTT11=
EXTT12=
EXTT13=
PLAYORDER=
